<?xml version="1.0" encoding="UTF-8" standalone="no"?>
<svg
   height="24"
   viewBox="0 -960 960 960"
   width="24"
   version="1.1"
   id="svg4"
   sodipodi:docname="list.svg"
   inkscape:version="1.2.2 (732a01da63, 2022-12-09)"
   xmlns:inkscape="http://www.inkscape.org/namespaces/inkscape"
   xmlns:sodipodi="http://sodipodi.sourceforge.net/DTD/sodipodi-0.dtd"
   xmlns="http://www.w3.org/2000/svg"
   xmlns:svg="http://www.w3.org/2000/svg">
  <defs
     id="defs8" />
  <sodipodi:namedview
     id="namedview6"
     pagecolor="#ffffff"
     bordercolor="#000000"
     borderopacity="0.25"
     inkscape:showpageshadow="2"
     inkscape:pageopacity="0.0"
     inkscape:pagecheckerboard="0"
     inkscape:deskcolor="#d1d1d1"
     showgrid="false"
     inkscape:zoom="34.708333"
     inkscape:cx="8.1680672"
     inkscape:cy="12"
     inkscape:window-width="1920"
     inkscape:window-height="991"
     inkscape:window-x="-9"
     inkscape:window-y="1304"
     inkscape:window-maximized="1"
     inkscape:current-layer="svg4" />
  <path
     d="M320-280q17 0 28.5-11.5T360-320q0-17-11.5-28.5T320-360q-17 0-28.5 11.5T280-320q0 17 11.5 28.5T320-280Zm0-160q17 0 28.5-11.5T360-480q0-17-11.5-28.5T320-520q-17 0-28.5 11.5T280-480q0 17 11.5 28.5T320-440Zm0-160q17 0 28.5-11.5T360-640q0-17-11.5-28.5T320-680q-17 0-28.5 11.5T280-640q0 17 11.5 28.5T320-600Zm120 320h240v-80H440v80Zm0-160h240v-80H440v80Zm0-160h240v-80H440v80ZM200-120q-33 0-56.5-23.5T120-200v-560q0-33 23.5-56.5T200-840h560q33 0 56.5 23.5T840-760v560q0 33-23.5 56.5T760-120H200Zm0-80h560v-560H200v560Zm0-560v560-560Z"
     id="path2"
     style="fill:#ffffff" />
</svg>
